<?xml version="1.0" standalone="no"?>
<!DOCTYPE svg PUBLIC "-//W3C//DTD SVG 20010904//EN"
 "http://www.w3.org/TR/2001/REC-SVG-20010904/DTD/svg10.dtd">
<svg version="1.0" xmlns="http://www.w3.org/2000/svg"
 width="171.000000pt" height="300.000000pt" viewBox="0 0 171.000000 300.000000"
 preserveAspectRatio="xMidYMid meet">

<g transform="translate(0.000000,300.000000) scale(0.100000,-0.100000)"
fill="#8721F0" stroke="none">
<path d="M403 2976 c-18 -8 -42 -30 -53 -48 -20 -33 -20 -47 -20 -1428 0
-1382 0 -1395 20 -1428 42 -68 138 -79 195 -22 l30 30 5 703 c3 386 3 1025 0
1419 l-5 718 -31 31 c-37 36 -93 46 -141 25z m82 -1476 c0 -1335 -1 -1395 -18
-1398 -49 -10 -47 -78 -47 1396 0 1024 3 1379 12 1389 6 8 21 13 32 11 l21 -3
0 -1395z"/>
<path d="M10 1500 l0 -1481 47 3 48 3 3 332 2 333 41 0 c33 0 47 6 75 34 l34
34 0 351 c0 262 -3 356 -12 371 -10 16 -10 24 0 40 9 15 12 109 12 371 l0 351
-34 34 c-28 28 -42 34 -75 34 l-41 0 -2 333 -3 332 -47 3 -48 3 0 -1481z m149
716 c8 -9 11 -106 9 -336 -3 -284 -5 -324 -19 -333 -43 -27 -44 -18 -41 342 2
324 3 341 21 341 10 0 24 -6 30 -14z m-1 -768 c9 -9 12 -97 12 -333 0 -333 -1
-345 -42 -345 -16 0 -18 22 -20 341 -2 187 -1 343 1 345 9 8 37 4 49 -8z"/>
<path d="M650 1500 l0 -1480 45 0 45 0 0 360 0 360 23 0 c47 0 47 -4 47 -372
l0 -348 45 0 45 0 -4 373 c-5 450 -5 351 0 736 4 280 2 327 -11 347 -14 22
-14 26 0 48 13 20 15 67 11 347 -5 385 -5 286 0 737 l4 372 -45 0 -45 0 0
-348 c0 -368 0 -372 -47 -372 l-23 0 0 360 0 360 -45 0 -45 0 0 -1480z m148
668 c9 -9 12 -91 12 -309 0 -314 -2 -326 -47 -317 -17 3 -18 24 -20 312 -2
170 0 312 3 317 8 13 38 11 52 -3z m0 -720 c9 -9 12 -91 12 -309 0 -314 -2
-326 -47 -317 -17 3 -18 24 -20 312 -2 170 0 312 3 317 8 13 38 11 52 -3z"/>
<path d="M968 2233 c-2 -412 -2 -1078 0 -1480 l2 -733 45 0 45 0 2 333 3 332
30 3 c51 5 84 23 105 57 19 31 20 49 20 371 0 291 -2 343 -16 362 -14 20 -14
24 0 44 14 19 16 71 16 362 0 322 -1 340 -20 371 -21 34 -54 52 -105 57 l-30
3 -3 333 -2 332 -45 0 -45 0 -2 -747z m151 -17 c8 -9 11 -106 9 -336 -3 -284
-5 -324 -19 -333 -9 -6 -24 -7 -33 -4 -14 6 -16 40 -16 340 0 184 3 337 7 340
11 12 40 8 52 -7z m0 -770 c8 -9 11 -106 9 -336 -3 -284 -5 -324 -19 -333 -9
-6 -24 -7 -33 -4 -14 6 -16 40 -16 340 0 184 3 337 7 340 11 12 40 8 52 -7z"/>
<path d="M1288 2233 c-2 -412 -2 -1078 0 -1480 l2 -733 205 0 205 0 0 325 0
325 -50 0 -51 0 3 -280 3 -280 -32 0 -33 0 0 315 0 315 80 0 80 0 0 40 0 39
-77 3 -78 3 0 315 0 315 28 0 28 0 2 -280 2 -280 48 -3 47 -3 0 611 0 611 -47
-3 -48 -3 -2 -280 -2 -280 -28 0 -28 0 0 315 0 315 78 3 77 3 0 39 0 40 -80 0
-80 0 0 315 0 315 33 0 32 0 -3 -280 -3 -280 51 0 50 0 0 325 0 325 -205 0
-205 0 -2 -747z m162 -733 l0 -1390 -35 0 -35 0 0 1390 0 1390 35 0 35 0 0
-1390z"/>
</g>
</svg>
